<?xml version="1.0" encoding="UTF-8" standalone="no"?>
<svg width="20px" height="155px" viewBox="0 0 20 155" version="1.1" xmlns="http://www.w3.org/2000/svg" xmlns:xlink="http://www.w3.org/1999/xlink">
    <!-- Generator: Sketch 3.7.2 (28276) - http://www.bohemiancoding.com/sketch -->
    <title>Group 3</title>
    <desc>Created with Sketch.</desc>
    <defs></defs>
    <g id="Page-1" stroke="none" stroke-width="1" fill="none" fill-rule="evenodd">
        <g id="Artboard-2" transform="translate(-4.000000, -4.000000)" fill="#000000">
            <g id="Group-3" transform="translate(4.000000, 4.000000)">
                <g id="Group-2">
                    <g id="file">
                        <g id="Group">
                            <path d="M0.930693069,23.0693069 L19.0693069,23.0693069 C19.5247525,23.0693069 19.8811881,22.7128713 19.8811881,22.2574257 L19.8811881,0.891089109 C19.8811881,0.435643564 19.5247525,0.0792079208 19.0693069,0.0792079208 L5.46534653,0.0792079208 C5.40594059,0.0792079208 5.32673267,0.0792079208 5.26732673,0.099009901 C5.24752475,0.099009901 5.22772277,0.118811881 5.22772277,0.118811881 C5.16831683,0.138613861 5.12871287,0.158415842 5.06930693,0.178217822 C5.04950495,0.198019802 5.02970297,0.198019802 5.00990099,0.217821782 C4.95049505,0.257425743 4.89108911,0.297029703 4.85148515,0.356435644 L0.316831683,5.7029703 C0.257425743,5.76237624 0.217821782,5.84158416 0.178217822,5.92079208 C0.158415842,5.94059406 0.158415842,5.98019802 0.158415842,6 C0.138613861,6.05940594 0.138613861,6.11881188 0.118811881,6.17821782 L0.118811881,6.21782178 L0.118811881,22.2376238 C0.118811881,22.7128713 0.495049505,23.0693069 0.930693069,23.0693069 L0.930693069,23.0693069 Z M4.65346535,3.10891089 L4.65346535,5.44554455 L2.67326733,5.44554455 L4.65346535,3.10891089 L4.65346535,3.10891089 Z M1.74257426,7.04950495 L5.46534653,7.04950495 C5.92079208,7.04950495 6.27722772,6.69306931 6.27722772,6.23762376 L6.27722772,1.7029703 L18.2574257,1.7029703 L18.2574257,21.4455446 L1.74257426,21.4455446 L1.74257426,7.04950495 L1.74257426,7.04950495 Z" id="Shape"></path>
                            <path d="M15.8415842,8.81188119 L4.15841584,8.81188119 C3.7029703,8.81188119 3.34653465,9.16831683 3.34653465,9.62376238 C3.34653465,10.0792079 3.7029703,10.4356436 4.15841584,10.4356436 L15.8415842,10.4356436 C16.2970297,10.4356436 16.6534653,10.0792079 16.6534653,9.62376238 C16.6534653,9.16831683 16.2970297,8.81188119 15.8415842,8.81188119 L15.8415842,8.81188119 Z" id="Shape"></path>
                            <path d="M15.8415842,12.7326733 L4.15841584,12.7326733 C3.7029703,12.7326733 3.34653465,13.0891089 3.34653465,13.5445545 C3.34653465,14 3.7029703,14.3564356 4.15841584,14.3564356 L15.8415842,14.3564356 C16.2970297,14.3564356 16.6534653,14 16.6534653,13.5445545 C16.6534653,13.1089109 16.2970297,12.7326733 15.8415842,12.7326733 L15.8415842,12.7326733 Z" id="Shape"></path>
                        </g>
                    </g>
                    <g id="audio-speaker-on" transform="translate(0.000000, 44.000000)">
                        <g id="Capa_1">
                            <g id="Group">
                                <path d="M8.25862069,1.43206897 L4.48275862,4.25965517 L1.03448276,4.25965517 C0.465517241,4.25965517 0,4.72517241 0,5.29413793 L0,12.5010345 C0,13.0701724 0.465517241,13.5355172 1.03448276,13.5355172 L4.48275862,13.5355172 L8.25862069,16.3631034 C8.94827586,16.8803448 9.9137931,16.3975862 9.9137931,15.5355172 L9.9137931,2.25965517 C9.9137931,1.39758621 8.93103448,0.914827586 8.25862069,1.43206897 L8.25862069,1.43206897 Z" id="Shape"></path>
                                <path d="M13.3275862,3.12172414 C12.862069,2.6562069 12.0862069,2.6562069 11.6208621,3.12172414 C11.1553448,3.58724138 11.1553448,4.36310345 11.6208621,4.82862069 C13.8622414,7.07 13.8622414,10.7081034 11.6208621,12.9494828 C11.1553448,13.415 11.1553448,14.1908621 11.6208621,14.6562069 C11.862069,14.8975862 12.1724138,15.0010345 12.4655172,15.0010345 C12.7586207,15.0010345 13.0863793,14.8805172 13.3103448,14.6389655 C16.5172414,11.4837931 16.5172414,6.31137931 13.3275862,3.12172414 L13.3275862,3.12172414 Z" id="Shape"></path>
                                <path d="M14.6724138,0.414827586 C14.207069,0.880344828 14.207069,1.6562069 14.6724138,2.12172414 C16.4827586,3.93206897 17.482931,6.32862069 17.482931,8.89758621 C17.482931,11.4665517 16.4827586,13.8631034 14.6724138,15.6734483 C14.207069,16.1389655 14.207069,16.9148276 14.6724138,17.3803448 C14.9137931,17.6215517 15.2241379,17.7424138 15.5172414,17.7424138 C15.8275862,17.7424138 16.137931,17.6217241 16.362069,17.3975862 C18.6206897,15.1389655 19.8791379,12.1217241 19.8791379,8.91482759 C19.8791379,5.70793103 18.6377586,2.70793103 16.362069,0.432068966 C15.9137931,-0.0506896552 15.1551724,-0.0506896552 14.6724138,0.414827586 L14.6724138,0.414827586 Z" id="Shape"></path>
                            </g>
                        </g>
                    </g>
                    <g id="play-button" transform="translate(0.000000, 83.000000)">
                        <g id="Capa_1">
                            <g id="_x33_56._Play">
                                <path d="M18.6033016,4.98603175 C15.8505397,0.218095238 9.75352381,-1.41561905 4.98596825,1.33765079 C0.218031746,4.09003175 -1.41574603,10.1867937 1.33752381,14.9545397 C4.08990476,19.7224762 10.1867302,21.3564444 14.9543492,18.6034286 C19.7223492,15.8500952 21.3568889,9.75365079 18.6033016,4.98603175 L18.6033016,4.98603175 Z M13.9577143,16.876254 C10.1439365,19.0789206 5.26603175,17.771873 3.064,13.9573333 C0.861460317,10.1435556 2.16895238,5.26571429 5.98285714,3.06412698 C9.79688889,0.861587302 14.6745397,2.16850794 16.8766984,5.98292063 C19.0789206,9.79726984 17.7718095,14.6740952 13.9577143,16.876254 L13.9577143,16.876254 Z M13.5590476,9.56520635 L8.33911111,6.5208254 C7.86342857,6.24311111 7.47974603,6.46514286 7.4824127,7.01536508 L7.50914286,13.0581587 C7.51155556,13.608254 7.89993651,13.8321905 8.37701587,13.5566349 L13.5570159,10.5659683 C14.0335873,10.2909206 14.0346032,9.84292063 13.5590476,9.56520635 L13.5590476,9.56520635 Z" id="Shape"></path>
                            </g>
                        </g>
                    </g>
                    <g id="placeholder-tool" transform="translate(0.000000, 123.000000)">
                        <g id="Capa_1">
                            <path d="M10,0 C4.4765625,0 0,4.4765625 0,10 C0,11.4921875 0.328125,12.9101875 0.912125,14.1796875 L8.5293125,30.709 C8.8945625,31.503875 9.418,32 10,32 C10.582,32 11.1055,31.503875 11.4706875,30.7109375 L19.087875,14.1796875 C19.6738125,12.9101875 20,11.4921875 20,10 C20,4.4765625 15.5234375,0 10,0 L10,0 Z M10,16 C6.6875,16 4,13.3125 4,10 C4,6.6875 6.6875,4 10,4 C13.3125,4 16,6.6875 16,10 C16,13.3125 13.3125,16 10,16 L10,16 Z" id="Shape"></path>
                        </g>
                    </g>
                </g>
            </g>
        </g>
    </g>
</svg>